<svg width="107" height="34" viewBox="0 0 107 34" fill="none" xmlns="http://www.w3.org/2000/svg">
<rect width="34" height="34" rx="8" fill="#F9FAFB"/>
<rect x="5" y="6" width="23.4146" height="21" rx="6.09756" fill="#021246"/>
<path d="M23.2441 6C26.4231 6 29.0002 8.57709 29.0002 11.7561V21.2439C29.0002 24.4229 26.4231 27 23.2441 27V6Z" fill="#F9FAFB"/>
<rect x="18.4634" y="6" width="10.2439" height="2.58101" rx="1.2905" fill="#021246"/>
<path d="M21.585 18.9045H27.1459V24.4432C27.1459 25.7902 26.0539 26.8822 24.7069 26.8822H24.024C22.6769 26.8822 21.585 25.7902 21.585 24.4432V18.9045Z" fill="#021246"/>
<path d="M23.4395 16.3239H29.0004V21.4389C29.0004 24.5101 26.5107 26.9998 23.4395 26.9998V16.3239Z" fill="#021246"/>
<rect x="7.34082" y="8.58069" width="19.2195" height="15.486" rx="3.65854" fill="#F9FAFB"/>
<rect x="9.58496" y="10.1063" width="15.122" height="12.3184" rx="2.43902" fill="#021246"/>
<path d="M21 17.6724C21 16.1497 22.2343 14.9154 23.757 14.9154H26.2683V20.4294H23.757C22.2343 20.4294 21 19.195 21 17.6724Z" fill="#F9FAFB"/>
<path d="M22.2676 17.7313C22.2676 16.9538 22.8979 16.3235 23.6754 16.3235H26.5603V19.1391H23.6754C22.8979 19.1391 22.2676 18.5088 22.2676 17.7313Z" fill="#021246"/>
<ellipse cx="23.6334" cy="17.6723" rx="0.390244" ry="0.410615" fill="#F9FAFB"/>
<path d="M20.4146 14.9158H28.9999V10.9594C28.9999 10.4879 28.6177 10.1057 28.1463 10.1057H20.4146V14.9158Z" fill="#021246"/>
<path d="M46.56 23.88C45.2533 23.88 44.1133 23.6667 43.14 23.24C42.1667 22.8 41.36 22.2133 40.72 21.48C40.0933 20.7467 39.6267 19.9333 39.32 19.04C39.0133 18.1467 38.86 17.2533 38.86 16.36V15.92C38.86 15 39.0133 14.1 39.32 13.22C39.6267 12.34 40.0867 11.54 40.7 10.82C41.3267 10.1 42.1 9.52667 43.02 9.1C43.9533 8.67333 45.0267 8.46 46.24 8.46C47.56 8.46 48.7267 8.70667 49.74 9.2C50.7533 9.68 51.5667 10.3533 52.18 11.22C52.7933 12.0733 53.1467 13.0667 53.24 14.2H49.96C49.88 13.6667 49.6667 13.2 49.32 12.8C48.9867 12.4 48.5533 12.0867 48.02 11.86C47.5 11.6333 46.9067 11.52 46.24 11.52C45.6 11.52 45.0267 11.6333 44.52 11.86C44.0267 12.0867 43.6 12.4067 43.24 12.82C42.8933 13.2333 42.6267 13.7267 42.44 14.3C42.2667 14.86 42.18 15.48 42.18 16.16C42.18 16.8667 42.2733 17.5133 42.46 18.1C42.66 18.6733 42.9467 19.1733 43.32 19.6C43.6933 20.0133 44.1533 20.3333 44.7 20.56C45.26 20.7867 45.88 20.9 46.56 20.9C47.4667 20.9 48.2533 20.7133 48.92 20.34C49.5867 19.9667 50.0667 19.4733 50.36 18.86L49.96 21.1V17.62H52.98V20.74C52.3533 21.7533 51.4867 22.5333 50.38 23.08C49.2867 23.6133 48.0133 23.88 46.56 23.88ZM46.14 18.26V15.9H54.18V18.26H46.14ZM62.8602 23.86C61.9668 23.86 61.1802 23.6733 60.5002 23.3C59.8202 22.9133 59.2868 22.36 58.9002 21.64C58.5135 20.92 58.3068 20.04 58.2802 19H58.6602V23.5H56.1202V8.9H59.3202V16.32L58.5602 17.28C58.6002 16.1733 58.8068 15.2467 59.1802 14.5C59.5668 13.74 60.0935 13.1733 60.7602 12.8C61.4268 12.4133 62.1868 12.22 63.0402 12.22C63.7868 12.22 64.4602 12.36 65.0602 12.64C65.6735 12.9067 66.1935 13.2933 66.6202 13.8C67.0468 14.2933 67.3735 14.88 67.6002 15.56C67.8402 16.24 67.9602 16.98 67.9602 17.78V18.22C67.9602 19.02 67.8402 19.76 67.6002 20.44C67.3735 21.12 67.0335 21.72 66.5802 22.24C66.1402 22.7467 65.6068 23.1467 64.9802 23.44C64.3535 23.72 63.6468 23.86 62.8602 23.86ZM62.0202 21.18C62.5668 21.18 63.0402 21.0467 63.4402 20.78C63.8535 20.5133 64.1735 20.14 64.4002 19.66C64.6268 19.1667 64.7402 18.6133 64.7402 18C64.7402 17.3733 64.6268 16.8267 64.4002 16.36C64.1735 15.8933 63.8535 15.5333 63.4402 15.28C63.0402 15.0133 62.5668 14.88 62.0202 14.88C61.5402 14.88 61.0868 14.9933 60.6602 15.22C60.2335 15.4467 59.8868 15.7733 59.6202 16.2C59.3668 16.6133 59.2402 17.12 59.2402 17.72V18.46C59.2402 19.0333 59.3735 19.5267 59.6402 19.94C59.9202 20.34 60.2735 20.6467 60.7002 20.86C61.1268 21.0733 61.5668 21.18 62.0202 21.18ZM75.2027 23.88C74.2693 23.88 73.4427 23.72 72.7227 23.4C72.016 23.08 71.4227 22.6533 70.9427 22.12C70.476 21.5733 70.116 20.9667 69.8627 20.3C69.6227 19.62 69.5027 18.9267 69.5027 18.22V17.82C69.5027 17.0867 69.6227 16.3867 69.8627 15.72C70.116 15.04 70.476 14.4333 70.9427 13.9C71.4093 13.3667 71.9893 12.9467 72.6827 12.64C73.3893 12.32 74.1893 12.16 75.0827 12.16C76.256 12.16 77.2427 12.4267 78.0427 12.96C78.856 13.48 79.476 14.1667 79.9027 15.02C80.3293 15.86 80.5427 16.78 80.5427 17.78V18.86H70.8427V17.04H78.6027L77.5627 17.88C77.5627 17.2267 77.4693 16.6667 77.2827 16.2C77.096 15.7333 76.816 15.38 76.4427 15.14C76.0827 14.8867 75.6293 14.76 75.0827 14.76C74.5227 14.76 74.0493 14.8867 73.6627 15.14C73.276 15.3933 72.9827 15.7667 72.7827 16.26C72.5827 16.74 72.4827 17.3333 72.4827 18.04C72.4827 18.6933 72.576 19.2667 72.7627 19.76C72.9493 20.24 73.2427 20.6133 73.6427 20.88C74.0427 21.1467 74.5627 21.28 75.2027 21.28C75.7893 21.28 76.2693 21.1667 76.6427 20.94C77.016 20.7133 77.2693 20.4333 77.4027 20.1H80.3427C80.1827 20.8333 79.8693 21.4867 79.4027 22.06C78.936 22.6333 78.3493 23.08 77.6427 23.4C76.936 23.72 76.1227 23.88 75.2027 23.88ZM86.8231 23.84C85.2631 23.84 84.0431 23.52 83.1631 22.88C82.2831 22.24 81.8165 21.34 81.7631 20.18H84.6031C84.6565 20.5267 84.8631 20.84 85.2231 21.12C85.5965 21.3867 86.1498 21.52 86.8831 21.52C87.4431 21.52 87.9031 21.4267 88.2631 21.24C88.6365 21.04 88.8231 20.76 88.8231 20.4C88.8231 20.08 88.6831 19.8267 88.4031 19.64C88.1231 19.44 87.6231 19.3 86.9031 19.22L86.0431 19.14C84.7231 19.0067 83.7298 18.64 83.0631 18.04C82.4098 17.44 82.0831 16.6733 82.0831 15.74C82.0831 14.9667 82.2765 14.32 82.6631 13.8C83.0498 13.28 83.5831 12.8867 84.2631 12.62C84.9565 12.3533 85.7431 12.22 86.6231 12.22C88.0365 12.22 89.1765 12.5333 90.0431 13.16C90.9098 13.7733 91.3631 14.6667 91.4031 15.84H88.5631C88.5098 15.48 88.3231 15.18 88.0031 14.94C87.6831 14.6867 87.2098 14.56 86.5831 14.56C86.0898 14.56 85.6965 14.6533 85.4031 14.84C85.1098 15.0267 84.9631 15.28 84.9631 15.6C84.9631 15.9067 85.0898 16.14 85.3431 16.3C85.5965 16.46 86.0098 16.5733 86.5831 16.64L87.4431 16.72C88.7898 16.8667 89.8365 17.24 90.5831 17.84C91.3298 18.44 91.7031 19.2467 91.7031 20.26C91.7031 20.9933 91.5031 21.6333 91.1031 22.18C90.7031 22.7133 90.1365 23.1267 89.4031 23.42C88.6698 23.7 87.8098 23.84 86.8231 23.84ZM98.7964 23.88C97.8631 23.88 97.0364 23.72 96.3164 23.4C95.6097 23.08 95.0164 22.6533 94.5364 22.12C94.0697 21.5733 93.7097 20.9667 93.4564 20.3C93.2164 19.62 93.0964 18.9267 93.0964 18.22V17.82C93.0964 17.0867 93.2164 16.3867 93.4564 15.72C93.7097 15.04 94.0697 14.4333 94.5364 13.9C95.0031 13.3667 95.5831 12.9467 96.2764 12.64C96.9831 12.32 97.7831 12.16 98.6764 12.16C99.8497 12.16 100.836 12.4267 101.636 12.96C102.45 13.48 103.07 14.1667 103.496 15.02C103.923 15.86 104.136 16.78 104.136 17.78V18.86H94.4364V17.04H102.196L101.156 17.88C101.156 17.2267 101.063 16.6667 100.876 16.2C100.69 15.7333 100.41 15.38 100.036 15.14C99.6764 14.8867 99.2231 14.76 98.6764 14.76C98.1164 14.76 97.6431 14.8867 97.2564 15.14C96.8697 15.3933 96.5764 15.7667 96.3764 16.26C96.1764 16.74 96.0764 17.3333 96.0764 18.04C96.0764 18.6933 96.1697 19.2667 96.3564 19.76C96.5431 20.24 96.8364 20.6133 97.2364 20.88C97.6364 21.1467 98.1564 21.28 98.7964 21.28C99.3831 21.28 99.8631 21.1667 100.236 20.94C100.61 20.7133 100.863 20.4333 100.996 20.1H103.936C103.776 20.8333 103.463 21.4867 102.996 22.06C102.53 22.6333 101.943 23.08 101.236 23.4C100.53 23.72 99.7164 23.88 98.7964 23.88Z" fill="#F9FAFB"/>
</svg>
