<svg width="34" height="34" viewBox="0 0 34 34" fill="none" xmlns="http://www.w3.org/2000/svg">
<rect x="5" y="6.5" width="23.4146" height="21" rx="6.09756" fill="#F9FAFB"/>
<path d="M23.2439 6.5C26.4229 6.5 29 9.07709 29 12.2561V21.7439C29 24.9229 26.4229 27.5 23.2439 27.5V6.5Z" fill="#021346"/>
<rect x="18.4634" y="6.5" width="10.2439" height="2.58101" rx="1.2905" fill="#F9FAFB"/>
<path d="M21.5854 19.4045H27.1464V24.9432C27.1464 26.2902 26.0544 27.3822 24.7074 27.3822H24.0245C22.6774 27.3822 21.5854 26.2902 21.5854 24.9432V19.4045Z" fill="#F9FAFB"/>
<path d="M23.439 16.8235H28.9999V21.9385C28.9999 25.0097 26.5102 27.4995 23.439 27.4995V16.8235Z" fill="#F9FAFB"/>
<rect x="7.34131" y="9.08105" width="19.2195" height="15.486" rx="3.65854" fill="#021346"/>
<rect x="9.58545" y="10.6067" width="15.122" height="12.3184" rx="2.43902" fill="#F9FAFB"/>
<path d="M21 18.1728C21 16.6501 22.2343 15.4158 23.757 15.4158H26.2683V20.9297H23.757C22.2343 20.9297 21 19.6954 21 18.1728Z" fill="#021346"/>
<path d="M22.2683 18.2313C22.2683 17.4538 22.8986 16.8235 23.6761 16.8235H26.561V19.6391H23.6761C22.8986 19.6391 22.2683 19.0088 22.2683 18.2313Z" fill="#F9FAFB"/>
<ellipse cx="23.6341" cy="18.1723" rx="0.390244" ry="0.410615" fill="#021346"/>
<path d="M20.4148 15.4158H29.0002V11.4594C29.0002 10.9879 28.618 10.6057 28.1465 10.6057H20.4148V15.4158Z" fill="#F9FAFB"/>
</svg>
