<svg width="48" height="48" viewBox="0 0 48 48" fill="none" xmlns="http://www.w3.org/2000/svg">
<rect width="48" height="48" rx="24" fill="#CDD7F6" fill-opacity="0.55"/>
<path d="M23 27H25C25.5304 27 26.0391 26.7893 26.4142 26.4142C26.7893 26.0391 27 25.5304 27 25C27 24.4696 26.7893 23.9609 26.4142 23.5858C26.0391 23.2107 25.5304 23 25 23H22C21.4 23 20.9 23.2 20.6 23.6L15 29" stroke="#021346" stroke-width="2" stroke-linecap="round" stroke-linejoin="round"/>
<path d="M19 33L20.6 31.6C20.9 31.2 21.4 31 22 31H26C27.1 31 28.1 30.6 28.8 29.8L33.4 25.4C33.7859 25.0354 34.0111 24.5323 34.0261 24.0016C34.0411 23.4709 33.8447 22.9559 33.48 22.57C33.1153 22.1841 32.6123 21.9589 32.0816 21.9439C31.5508 21.9289 31.0359 22.1254 30.65 22.49L26.45 26.39" stroke="#021346" stroke-width="2" stroke-linecap="round" stroke-linejoin="round"/>
<path d="M14 28L20 34" stroke="#021346" stroke-width="2" stroke-linecap="round" stroke-linejoin="round"/>
<path d="M28.0016 23.9C29.6032 23.9 30.9016 22.6016 30.9016 21C30.9016 19.3983 29.6032 18.1 28.0016 18.1C26.3999 18.1 25.1016 19.3983 25.1016 21C25.1016 22.6016 26.3999 23.9 28.0016 23.9Z" stroke="#021346" stroke-width="2" stroke-linecap="round" stroke-linejoin="round"/>
<path d="M18 20C19.6569 20 21 18.6569 21 17C21 15.3431 19.6569 14 18 14C16.3431 14 15 15.3431 15 17C15 18.6569 16.3431 20 18 20Z" stroke="#021346" stroke-width="2" stroke-linecap="round" stroke-linejoin="round"/>
</svg>
