<svg width="34" height="34" viewBox="0 0 34 34" fill="none" xmlns="http://www.w3.org/2000/svg">
<rect x="5" y="6.5" width="23.4146" height="21" rx="6.09756" fill="#F9FAFB"/>
<path d="M23.2422 6.5C26.4212 6.5 28.9983 9.07709 28.9983 12.2561V21.7439C28.9983 24.9229 26.4212 27.5 23.2422 27.5V6.5Z" fill="#021346"/>
<rect x="18.4648" y="6.5" width="10.2439" height="2.58101" rx="1.2905" fill="#F9FAFB"/>
<path d="M21.5859 19.4045H27.1469V24.9432C27.1469 26.2902 26.0549 27.3822 24.7079 27.3822H24.025C22.6779 27.3822 21.5859 26.2902 21.5859 24.9432V19.4045Z" fill="#F9FAFB"/>
<path d="M23.4375 16.8235H28.9985V21.9385C28.9985 25.0097 26.5087 27.4995 23.4375 27.4995V16.8235Z" fill="#F9FAFB"/>
<rect x="7.33984" y="9.08105" width="19.2195" height="15.486" rx="3.65854" fill="#021346"/>
<rect x="9.58203" y="10.6067" width="15.122" height="12.3184" rx="2.43902" fill="#F9FAFB"/>
<path d="M21 18.1728C21 16.6501 22.2343 15.4158 23.757 15.4158H26.2683V20.9297H23.757C22.2343 20.9297 21 19.6954 21 18.1728Z" fill="#021346"/>
<path d="M22.2656 18.2313C22.2656 17.4538 22.8959 16.8235 23.6734 16.8235H26.5583V19.6391H23.6734C22.8959 19.6391 22.2656 19.0088 22.2656 18.2313Z" fill="#F9FAFB"/>
<ellipse cx="23.6324" cy="18.1723" rx="0.390244" ry="0.410615" fill="#021346"/>
<path d="M20.4141 15.4158H28.9994V11.4594C28.9994 10.9879 28.6172 10.6057 28.1458 10.6057H20.4141V15.4158Z" fill="#F9FAFB"/>
</svg>
