<svg width="319" height="300" viewBox="0 0 319 300" fill="none" xmlns="http://www.w3.org/2000/svg">
<path d="M276.84 51.288C276.075 56.4414 273.847 61.2667 270.419 65.1903C266.991 69.1139 262.509 71.9708 257.505 73.4213C252.502 74.8718 247.186 74.8549 242.192 73.3727C237.197 71.8904 232.733 69.0052 229.331 65.0599C225.928 61.1146 223.73 56.2752 222.998 51.1171C222.265 45.9589 223.03 40.699 225.199 35.9625C227.369 31.226 230.854 27.2122 235.238 24.3983C239.623 21.5844 244.723 20.0888 249.933 20.0891V47.2854L276.84 51.288Z" fill="#EBEBEB"/>
<path d="M282.669 41.761C282.671 43.0982 282.572 44.4337 282.373 45.756L255.473 41.761V14.5647C259.045 14.5617 262.583 15.2631 265.884 16.6288C269.185 17.9945 272.185 19.9976 274.711 22.5236C277.237 25.0496 279.24 28.0489 280.605 31.3499C281.971 34.6508 282.672 38.1887 282.669 41.761Z" fill="#DBDBDB"/>
<path d="M281.802 56.957H252.878V57.718H281.802V56.957Z" fill="#C7C7C7"/>
<path d="M283.834 59.7499C283.356 59.7515 282.889 59.6113 282.491 59.3471C282.094 59.083 281.783 58.7068 281.6 58.2661C281.416 57.8255 281.367 57.3402 281.459 56.8718C281.551 56.4034 281.781 55.9729 282.118 55.6348C282.455 55.2966 282.884 55.0661 283.353 54.9724C283.821 54.8788 284.306 54.9261 284.747 55.1084C285.189 55.2908 285.566 55.5999 285.831 55.9968C286.097 56.3936 286.238 56.8603 286.238 57.3377C286.239 57.6541 286.178 57.9677 286.057 58.2603C285.937 58.5529 285.76 58.8189 285.537 59.043C285.313 59.2671 285.048 59.4449 284.756 59.5662C284.463 59.6875 284.15 59.7499 283.834 59.7499ZM283.834 55.6941C283.506 55.6926 283.186 55.7883 282.913 55.9692C282.641 56.1501 282.428 56.4079 282.302 56.7099C282.176 57.012 282.143 57.3446 282.206 57.6656C282.27 57.9866 282.427 58.2816 282.658 58.5129C282.89 58.7443 283.185 58.9018 283.506 58.9652C283.827 59.0287 284.159 58.9954 284.461 58.8694C284.763 58.7435 285.021 58.5307 285.202 58.258C285.383 57.9853 285.479 57.665 285.477 57.3377C285.477 56.9018 285.304 56.4837 284.996 56.1755C284.688 55.8673 284.27 55.6941 283.834 55.6941Z" fill="#C7C7C7"/>
<path d="M313.655 55.8157H291.184V56.8277H313.655V55.8157Z" fill="#C7C7C7"/>
<path d="M303.9 57.8474H291.184V58.8595H303.9V57.8474Z" fill="#C7C7C7"/>
<path d="M17.9506 109.166H10.7749V160.225H17.9506V109.166Z" fill="#EBEBEB"/>
<path d="M30.2856 121.531H23.1099V160.233H30.2856V121.531Z" fill="#EBEBEB"/>
<path d="M42.6206 140.875H35.4448V160.225H42.6206V140.875Z" fill="#EBEBEB"/>
<path d="M54.948 129.825H47.7722V160.225H54.948V129.825Z" fill="#EBEBEB"/>
<path d="M67.2829 118.221H60.1072V160.233H67.2829V118.221Z" fill="#EBEBEB"/>
<path d="M79.6179 111.395H72.4421V160.233H79.6179V111.395Z" fill="#EBEBEB"/>
<path d="M6.61252 102.675L6.69622 117.064L6.74188 131.454L6.79514 160.225L6.61252 160.05C13.2074 160.05 19.8023 160.05 26.3972 160.05L46.1818 160.088L65.9665 160.126L85.7511 160.233L65.9665 160.339L46.1818 160.385L26.3972 160.423C19.8023 160.423 13.2074 160.423 6.61252 160.423H6.4375V160.241L6.49077 131.469V117.08L6.61252 102.675Z" fill="#EBEBEB"/>
<path d="M5.02979 105.544C5.5447 105.4 6.07809 105.333 6.61256 105.346C7.14709 105.332 7.68066 105.399 8.19533 105.544C7.68021 105.687 7.14724 105.756 6.61256 105.749C6.07794 105.755 5.54511 105.686 5.02979 105.544Z" fill="#EBEBEB"/>
<path d="M5.02979 109.934C5.54511 109.792 6.07794 109.723 6.61256 109.729C7.14724 109.722 7.68021 109.791 8.19533 109.934C7.68021 110.078 7.14724 110.147 6.61256 110.14C6.07794 110.146 5.54511 110.077 5.02979 109.934Z" fill="#EBEBEB"/>
<path d="M5.02979 114.31C5.54511 114.167 6.07794 114.098 6.61256 114.104C7.14724 114.097 7.68021 114.166 8.19533 114.31C7.68021 114.453 7.14724 114.522 6.61256 114.515C6.07794 114.521 5.54511 114.452 5.02979 114.31Z" fill="#EBEBEB"/>
<path d="M5.02979 118.685C5.54511 118.543 6.07794 118.474 6.61256 118.48C7.14724 118.473 7.68021 118.542 8.19533 118.685C7.68066 118.83 7.14709 118.897 6.61256 118.883C6.07809 118.896 5.5447 118.829 5.02979 118.685Z" fill="#EBEBEB"/>
<path d="M5.02979 123.046C5.54511 122.903 6.07794 122.834 6.61256 122.84C7.14747 122.829 7.68105 122.898 8.19533 123.046C7.67986 123.187 7.14688 123.253 6.61256 123.243C6.07829 123.252 5.54543 123.186 5.02979 123.046Z" fill="#EBEBEB"/>
<path d="M5.02979 127.429C5.5447 127.285 6.07809 127.218 6.61256 127.231C7.14709 127.217 7.68066 127.284 8.19533 127.429C7.68021 127.572 7.14724 127.641 6.61256 127.634C6.07794 127.64 5.54511 127.571 5.02979 127.429Z" fill="#EBEBEB"/>
<path d="M5.02979 131.804C5.54511 131.662 6.07794 131.592 6.61256 131.599C7.14724 131.591 7.68021 131.661 8.19533 131.804C7.68021 131.948 7.14724 132.017 6.61256 132.01C6.07794 132.016 5.54511 131.947 5.02979 131.804Z" fill="#EBEBEB"/>
<path d="M5.02979 136.179C5.54511 136.037 6.07794 135.968 6.61256 135.974C7.14724 135.967 7.68021 136.036 8.19533 136.179C7.68021 136.323 7.14724 136.392 6.61256 136.385C6.07794 136.391 5.54511 136.322 5.02979 136.179Z" fill="#EBEBEB"/>
<path d="M5.02979 140.547C5.54511 140.405 6.07794 140.336 6.61256 140.342C7.14724 140.335 7.68021 140.404 8.19533 140.547C7.68066 140.692 7.14709 140.759 6.61256 140.745C6.07809 140.758 5.5447 140.691 5.02979 140.547Z" fill="#EBEBEB"/>
<path d="M5.02979 144.93C5.54511 144.788 6.07794 144.719 6.61256 144.725C7.14747 144.713 7.68105 144.783 8.19533 144.93C7.68066 145.075 7.14709 145.142 6.61256 145.128C6.07829 145.137 5.54543 145.07 5.02979 144.93Z" fill="#EBEBEB"/>
<path d="M5.02979 149.298C5.54543 149.158 6.07829 149.092 6.61256 149.1C7.14709 149.087 7.68066 149.153 8.19533 149.298C7.68105 149.446 7.14747 149.515 6.61256 149.504C6.07794 149.51 5.54511 149.441 5.02979 149.298Z" fill="#EBEBEB"/>
<path d="M5.02979 153.674C5.54511 153.531 6.07794 153.462 6.61256 153.468C7.14724 153.461 7.68021 153.53 8.19533 153.674C7.68021 153.817 7.14724 153.886 6.61256 153.879C6.07794 153.885 5.54511 153.816 5.02979 153.674Z" fill="#EBEBEB"/>
<path d="M41.6924 189.636H0.0761719V279.336H41.6924V189.636Z" fill="#B3B3B3"/>
<path opacity="0.7" d="M41.6924 189.636H0.0761719V279.336H41.6924V189.636Z" fill="#F9FAFB"/>
<path opacity="0.5" d="M41.6924 189.636H29.3574V279.336H41.6924V189.636Z" fill="#F9FAFB"/>
<path d="M97.0667 121.637H55.458V279.336H97.0667V121.637Z" fill="#B3B3B3"/>
<path opacity="0.7" d="M97.0667 121.637H55.458V279.336H97.0667V121.637Z" fill="#F9FAFB"/>
<path opacity="0.5" d="M97.074 121.637H84.739V279.336H97.074V121.637Z" fill="#F9FAFB"/>
<path d="M152.464 172.887H110.847V279.337H152.464V172.887Z" fill="#B3B3B3"/>
<path opacity="0.7" d="M152.464 172.887H110.847V279.337H152.464V172.887Z" fill="#F9FAFB"/>
<path opacity="0.5" d="M152.464 172.887H140.129V279.337H152.464V172.887Z" fill="#F9FAFB"/>
<path d="M207.845 85.9263H166.229V279.329H207.845V85.9263Z" fill="#B3B3B3"/>
<path opacity="0.7" d="M207.845 85.9263H166.229V279.329H207.845V85.9263Z" fill="#F9FAFB"/>
<path opacity="0.5" d="M207.845 85.9263H195.51V279.329H207.845V85.9263Z" fill="#F9FAFB"/>
<path d="M263.22 117.042H221.611V279.337H263.22V117.042Z" fill="#B3B3B3"/>
<path opacity="0.7" d="M263.22 117.042H221.611V279.337H263.22V117.042Z" fill="#F9FAFB"/>
<path opacity="0.5" d="M263.227 117.042H250.892V279.337H263.227V117.042Z" fill="#F9FAFB"/>
<path d="M318.617 58.3647H277V279.337H318.617V58.3647Z" fill="#B3B3B3"/>
<path opacity="0.7" d="M318.617 58.3647H277V279.337H318.617V58.3647Z" fill="#F9FAFB"/>
<path opacity="0.5" d="M318.616 58.3647H306.281V279.337H318.616V58.3647Z" fill="#F9FAFB"/>
<path d="M59.6431 95.6587H81.1703L126.523 167.233H104.988L59.6431 95.6587Z" fill="#B3B3B3"/>
<path opacity="0.1" d="M59.6431 95.6587H81.1703L126.523 167.233H104.988L59.6431 95.6587Z" fill="#111111"/>
<path d="M175.901 55.3057H197.436L242.781 126.888H221.253L175.901 55.3057Z" fill="#B3B3B3"/>
<path opacity="0.1" d="M175.901 55.3057H197.436L242.781 126.888H221.253L175.901 55.3057Z" fill="#111111"/>
<path d="M81.1476 95.6587H59.6128L0.0761719 189.636H21.6034L81.1476 95.6587Z" fill="#B3B3B3"/>
<path d="M197.473 55.3057H175.939L105.026 167.234H126.553L197.473 55.3057Z" fill="#B3B3B3"/>
<path d="M313.587 14.9526H292.059L221.147 126.888H242.674L313.587 14.9526Z" fill="#B3B3B3"/>
<path d="M287.06 14.9526H318.677L310.566 0L287.06 14.9526Z" fill="#B3B3B3"/>
<path d="M318.678 279.337L278.849 279.519L239.014 279.588L159.343 279.709L79.6713 279.588L39.8356 279.519L0 279.337L39.8356 279.146L79.6713 279.078L159.343 278.956L239.014 279.085L278.849 279.146L318.678 279.337Z" fill="#263238"/>
<path d="M152.433 136.659C137.283 149.146 97.9113 194.034 95.8948 197.131C90.6214 205.258 86.0634 244.797 109.592 239.242C133.12 233.687 159.343 167.431 167.257 144.976C171.457 133.075 164.799 126.47 152.433 136.659Z" fill="#C7C7C7"/>
<path opacity="0.1" d="M117.757 235.125C138.904 219.145 160.233 164.867 167.218 144.976C169.783 137.724 168.307 132.428 163.962 131.72L117.757 235.125Z" fill="#111111"/>
<path d="M99.7224 155.576C97.0134 150.531 60.6325 164.958 63.5697 172.857C74.3143 201.773 89.7539 229.296 95.3773 234.752C102.751 241.905 114.31 237.758 117.841 231.709C122.741 223.247 102.409 160.575 99.7224 155.576Z" fill="#D3766A"/>
<path d="M71.6205 178.982C76.2547 181.06 100.917 159.738 99.7756 154.632C98.7407 150.066 98.1624 136.461 101.183 126.644C103.71 118.396 108.412 106.441 104.022 104.912C97.6373 102.675 89.8833 117.087 85.9339 125.617C82.9434 121.47 79.9757 118.183 77.5635 116.897C69.4975 112.635 45.8852 146.246 49.5834 154.761C53.1142 162.987 66.9787 176.913 71.6205 178.982Z" fill="#D3766A"/>
<path d="M93.7619 109.553L87.8511 105.365L69.4265 131.368L75.3374 135.556L93.7619 109.553Z" fill="#C7C7C7"/>
<path d="M64.1404 154.602L55.1992 148.263L71.5292 125.214L80.4703 131.545L64.1404 154.602Z" fill="#263238"/>
<path d="M88.6504 125.967C88.0188 130.662 82.8444 127.23 82.8444 127.23C82.8444 127.23 89.107 133.972 86.5806 138.569C84.1304 142.99 78.02 138.614 77.5786 138.31C77.9058 138.668 83.4988 145.014 80.4854 149.366C77.3503 153.932 71.9704 148.453 71.628 148.096C71.8335 148.537 74.4207 154.358 71.3769 157.143C66.1492 161.937 59.118 147.251 53.624 145.554C53.624 145.554 49.7127 154.533 49.5453 154.769C49.5453 154.769 42.5674 140.92 45.2535 133.638C45.6269 132.574 46.3525 131.669 47.3102 131.074C48.2678 130.479 49.4001 130.229 50.5193 130.366C50.5193 130.366 47.7723 126.15 50.0399 122.642C51.2042 120.846 55.1154 121.12 55.1154 121.12C55.1154 121.12 53.0609 117.65 55.2752 114.66C57.0254 112.263 60.678 112.909 60.678 112.909C60.678 112.909 60.2442 108.663 62.8314 106.822C68.0287 103.032 89.9973 115.9 88.6504 125.967Z" fill="#D3766A"/>
<path d="M61.2716 112.917C61.2608 112.917 61.2502 112.914 61.2408 112.908C61.2313 112.903 61.2233 112.895 61.2173 112.886C61.2113 112.877 61.2075 112.867 61.2063 112.856C61.205 112.846 61.2064 112.835 61.2102 112.824C61.214 112.814 61.2201 112.805 61.2282 112.798C61.2362 112.791 61.2458 112.785 61.2562 112.782C61.2667 112.78 61.2777 112.779 61.2883 112.781C61.2989 112.784 61.3088 112.788 61.3173 112.795C69.566 115.261 77.8755 120.504 83.1413 127.383C83.3163 127.611 83.0271 127.991 82.7836 127.778C76.0036 121.721 69.4975 116.889 61.2716 112.917Z" fill="#263238"/>
<path d="M55.0317 121.006C54.948 121.006 55.0317 120.816 55.1154 120.846C63.6076 123.441 72.7999 129.597 77.9439 138.241C78.1189 138.538 77.9439 139.002 77.746 138.66C73.8957 133.166 62.4586 124.567 55.0317 121.006Z" fill="#263238"/>
<path d="M71.7803 148.826C66.5297 140.73 59.217 135.129 50.877 130.449C50.7705 130.388 50.877 130.236 50.9684 130.267C55.671 131.439 60.6781 134.977 64.3382 138.051C67.7924 140.848 70.455 144.5 72.0618 148.644C72.1227 148.811 71.8868 149.001 71.7803 148.826Z" fill="#263238"/>
<path d="M83.0044 127.223C83.2098 127.497 82.5858 127.497 82.7837 127.778C83.6207 128.943 88.0418 136.4 85.9645 138.698C84.3056 140.532 80.6835 139.565 79.4355 138.652L76.3004 136.369L78.4463 139.626C79.4071 141.063 80.1291 142.646 80.5845 144.314C81.0031 145.95 80.9878 147.685 80.1204 148.94C79.7445 149.577 79.1626 150.067 78.4709 150.328C77.7791 150.59 77.0188 150.608 76.3156 150.379C74.7402 149.822 73.3335 148.871 72.2293 147.616L69.0714 144.268L70.9509 148.446C71.4763 149.611 71.8522 150.838 72.0695 152.098C72.3165 153.282 72.2107 154.512 71.7652 155.637C71.543 156.135 71.1859 156.562 70.7341 156.869C70.2823 157.175 69.7539 157.349 69.2084 157.372C67.9841 157.235 66.8235 156.755 65.8602 155.987C63.7556 154.349 61.7813 152.55 59.9552 150.607C58.9964 149.656 58.0376 148.704 57.0332 147.791C56.0765 146.819 54.9216 146.063 53.647 145.577C54.8376 146.194 55.8972 147.037 56.7669 148.058C57.6952 149.032 58.5703 150.051 59.453 151.101C61.1845 153.215 63.1106 155.161 65.2058 156.915C66.3213 157.884 67.6975 158.504 69.1627 158.696C69.9728 158.718 70.7716 158.502 71.4602 158.075C72.1487 157.647 72.6966 157.027 73.0359 156.291C73.6358 154.913 73.8081 153.386 73.5305 151.908C73.3136 150.503 72.9146 149.132 72.3435 147.829L71.0727 148.606C72.3575 150.105 74.0093 151.246 75.8667 151.916C76.9081 152.254 78.0347 152.222 79.055 151.824C80.0412 151.402 80.8767 150.691 81.452 149.785C81.9596 148.904 82.2744 147.926 82.3754 146.915C82.4764 145.903 82.3614 144.882 82.038 143.918C81.5146 142.088 80.6918 140.358 79.6029 138.797L78.6137 139.748C80.2345 140.859 84.1686 142.381 87.1135 139.855C90.4236 135.981 84.2371 128.509 83.0044 127.223Z" fill="#263238"/>
<path d="M82.8445 127.23C83.7482 127.6 84.7026 127.831 85.6752 127.915C86.0646 127.958 86.4584 127.897 86.8157 127.736C87.1731 127.575 87.4808 127.322 87.7069 127.002C88.1077 126.235 88.2769 125.368 88.1939 124.506C88.1483 123.547 88.0494 122.551 87.9124 121.516C88.5402 122.367 88.9857 123.338 89.2212 124.369C89.3787 124.93 89.4235 125.517 89.353 126.096C89.2824 126.674 89.098 127.233 88.8103 127.74C88.4361 128.273 87.9037 128.675 87.2884 128.889C86.7083 129.071 86.0889 129.087 85.5002 128.935C84.457 128.662 83.5272 128.065 82.8445 127.23Z" fill="#263238"/>
<path d="M104.371 162.691L63.5085 192.292C63.5085 192.292 89.3199 237.872 101.556 239.417C109.721 240.444 120.017 238.078 119.636 222.554C119.256 207.031 104.371 162.691 104.371 162.691Z" fill="#C7C7C7"/>
<path d="M108.116 174.828C109.478 177.578 110.63 180.427 111.563 183.35C112.575 186.234 113.503 189.134 114.317 192.079C115.931 198.019 117.141 204.062 117.939 210.166C118.404 213.575 118.7 217.015 119.119 220.416C119.119 220.432 119.112 220.448 119.101 220.459C119.09 220.471 119.074 220.477 119.058 220.477C119.042 220.477 119.026 220.471 119.015 220.459C119.004 220.448 118.997 220.432 118.997 220.416C118.662 217.372 118.13 214.329 117.544 211.361C116.958 208.393 116.311 205.327 115.581 202.336C114.15 196.469 112.613 190.625 110.908 184.834C110.429 183.213 109.934 181.593 109.386 179.987C108.839 178.381 108.275 176.654 107.864 174.942C107.857 174.79 108.039 174.691 108.116 174.828Z" fill="#263238"/>
<path d="M105.566 174.843C104.417 175.482 103.352 176.289 102.279 177.035L98.9384 179.317C96.6555 180.839 94.4564 182.437 92.2344 184.028C87.7905 187.201 83.3465 190.359 78.9635 193.608C77.7536 194.498 76.5513 195.396 75.3718 196.325C74.1923 197.253 72.9596 198.356 71.7116 199.323C71.6355 199.376 71.7116 199.483 71.8106 199.429C72.9368 198.668 74.0934 198.014 75.2501 197.261C76.4067 196.507 77.5329 195.739 78.6895 194.917C80.9216 193.344 83.1411 191.756 85.3478 190.153C89.6928 186.995 94.0607 183.853 98.3372 180.603L101.914 177.872C103.162 176.92 104.486 176.022 105.642 174.965C105.703 174.912 105.642 174.79 105.566 174.843Z" fill="#263238"/>
<path d="M141.78 279.184H205.236C205.761 277.145 206.263 275.136 206.757 273.157C207.336 270.874 207.906 268.66 208.454 266.499C208.576 266.012 208.705 265.533 208.827 265.053L210.052 260.214C210.296 259.255 210.539 258.319 210.768 257.383C210.996 256.447 211.255 255.503 211.483 254.59C211.551 254.354 211.605 254.111 211.673 253.875C211.742 253.639 211.802 253.357 211.863 253.114C211.924 252.87 212.023 252.482 212.107 252.17L212.358 251.196C212.518 250.588 212.67 249.986 212.815 249.401C213.035 248.525 213.256 247.673 213.461 246.851C213.553 246.486 213.652 246.09 213.735 245.771C213.887 245.192 214.032 244.629 214.169 244.074C214.268 243.701 214.359 243.313 214.443 242.986C214.823 241.535 215.173 240.168 215.493 238.884C215.577 238.549 215.66 238.222 215.752 237.895C215.889 237.34 216.026 236.814 216.147 236.297C216.239 235.977 216.323 235.658 216.391 235.353C216.673 234.265 216.931 233.268 217.152 232.386C217.22 232.157 217.274 231.929 217.335 231.716C217.479 231.13 217.616 230.62 217.73 230.194C217.776 230.004 217.814 229.829 217.86 229.669C217.905 229.509 217.951 229.312 217.989 229.159C218.027 229.007 218.05 228.939 218.073 228.84C218.096 228.741 218.156 228.535 218.187 228.406C218.217 228.277 218.187 228.269 218.233 228.216C218.331 227.835 218.377 227.645 218.377 227.645H156.619C156.619 227.645 154.579 234.653 151.292 245.961L149.154 253.388C147.023 260.868 144.497 269.665 141.78 279.184Z" fill="#37474F"/>
<path d="M194.848 279.184H196.431C198.78 269.469 201.063 259.732 203.28 249.971C203.812 247.597 204.337 245.22 204.855 242.841C204.908 242.621 204.954 242.4 204.999 242.179C205.045 241.959 204.847 242.004 204.817 242.126L204.756 242.347C204.041 244.896 203.318 247.453 202.625 250.009C199.932 259.724 197.339 269.449 194.848 279.184Z" fill="#263238"/>
<path d="M158.62 227.592L161.344 241.236L163.581 252.406L167.386 271.483L167.774 273.439L168.428 276.696L168.915 279.161H205.243C205.76 277.114 206.278 275.105 206.765 273.135C207.343 270.852 207.914 268.637 208.462 266.476C208.583 265.989 208.713 265.51 208.835 265.03L210.06 260.191C210.303 259.232 210.547 258.296 210.775 257.36C211.003 256.424 211.262 255.481 211.49 254.567C211.559 254.332 211.612 254.088 211.681 253.852C211.749 253.616 211.81 253.335 211.871 253.091C211.932 252.848 212.031 252.46 212.114 252.148L212.365 251.174C212.525 250.565 212.677 249.964 212.822 249.378C213.043 248.503 213.263 247.65 213.469 246.829C213.568 246.456 213.659 246.068 213.743 245.748C213.895 245.17 214.039 244.607 214.176 244.051C214.275 243.678 214.367 243.29 214.45 242.963C214.831 241.512 215.181 240.145 215.5 238.861C215.584 238.527 215.668 238.199 215.759 237.872C215.896 237.317 216.033 236.792 216.155 236.274C216.246 235.955 216.33 235.635 216.398 235.331C216.68 234.242 216.939 233.246 217.159 232.363C217.228 232.135 217.281 231.906 217.342 231.693C217.487 231.107 217.624 230.598 217.738 230.171C217.783 229.981 217.821 229.806 217.867 229.646C217.913 229.487 217.958 229.289 217.996 229.137C218.034 228.984 218.057 228.916 218.08 228.817C218.103 228.718 218.164 228.513 218.194 228.383C218.225 228.254 218.194 228.246 218.24 228.193C218.339 227.812 218.384 227.622 218.384 227.622L158.62 227.592Z" fill="#263238"/>
<path d="M158.582 227.561C158.582 227.896 158.833 231.579 159.434 237.203C159.601 238.839 159.799 240.642 160.035 242.575C160.393 245.619 160.849 248.982 161.405 252.536C162.348 258.738 163.589 265.472 165.209 272.107C165.78 274.489 166.412 276.848 167.081 279.154H246.813C245.878 266.979 245.01 256.013 244.333 247.354C243.374 235.179 242.765 227.531 242.765 227.531H170.43L158.582 227.561Z" fill="#37474F"/>
<path d="M158.779 234.905C158.863 237.758 158.985 240.604 159.175 243.45C159.365 246.494 159.647 249.599 160.05 252.673C160.05 252.787 160.05 252.893 160.05 253.008C160.431 255.884 160.862 258.755 161.344 261.621C161.8 264.292 162.105 267.169 163.322 269.642C163.769 270.596 164.403 271.45 165.186 272.153C165.906 272.809 166.785 273.265 167.736 273.477C167.893 273.514 168.054 273.54 168.215 273.553H168.352C168.322 273.571 168.297 273.596 168.281 273.627C168.264 273.658 168.258 273.693 168.261 273.728C168.261 274.679 168.261 275.653 168.375 276.605C168.375 276.605 168.375 276.688 168.375 276.726C168.474 277.556 168.626 278.37 168.778 279.192H170.148C170.148 279.192 170.148 279.192 170.148 279.146C169.912 278.248 169.707 277.335 169.486 276.43C169.265 275.524 168.938 274.596 168.725 273.652C168.725 273.614 168.687 273.591 168.664 273.561C169.532 273.605 170.392 273.381 171.129 272.919C171.865 272.458 172.442 271.781 172.781 270.981C173.124 269.759 173.145 268.47 172.842 267.237C172.598 265.601 172.355 263.973 172.081 262.337C171.616 259.339 171.015 256.371 170.483 253.388C170.399 252.939 170.323 252.475 170.239 252.026C169.174 245.938 168.055 239.851 166.708 233.87C166.663 233.619 166.602 233.367 166.549 233.109C166.495 232.85 166.244 232.987 166.259 233.147C166.297 233.55 166.343 233.961 166.389 234.357C166.622 236.67 166.899 238.971 167.218 241.259C167.606 243.952 167.865 246.661 168.246 249.355C168.375 250.276 168.504 251.189 168.641 252.11C169.258 256.538 169.904 260.975 170.658 265.388C171.015 267.435 172.294 271.111 169.341 271.75C168.665 271.896 167.959 271.807 167.34 271.499C166.034 270.713 165.058 269.48 164.593 268.029C163.868 265.616 163.343 263.147 163.025 260.647C162.549 257.949 162.12 255.245 161.739 252.536C161.263 249.147 160.755 245.766 160.217 242.392C159.959 240.673 159.685 238.953 159.411 237.233L159.023 234.844C159.046 234.676 158.779 234.722 158.779 234.905Z" fill="#263238"/>
<path d="M229.35 256.089C226.028 256.057 222.723 255.612 219.511 254.765C218.027 254.385 216.566 253.913 215.113 253.434C213.67 253.037 212.32 252.36 211.14 251.44C208.903 249.515 207.861 246.479 206.894 243.777C205.83 240.738 204.968 237.632 204.315 234.479C204.315 234.319 204.056 234.372 204.048 234.517C203.971 238.084 204.422 241.643 205.388 245.079C206.187 247.993 207.267 251.25 209.626 253.297C212.099 255.443 215.47 256.196 218.636 256.592C222.201 257.005 225.805 256.954 229.357 256.439C229.404 256.438 229.448 256.419 229.48 256.386C229.512 256.352 229.53 256.307 229.529 256.261C229.528 256.214 229.508 256.17 229.475 256.138C229.441 256.106 229.396 256.088 229.35 256.089Z" fill="#263238"/>
<path d="M234.867 234.57C235.044 239.029 235.232 243.496 235.43 247.97C235.886 258.37 236.393 268.769 236.952 279.169H238.473C237.789 268.744 237.066 258.321 236.305 247.902C235.975 243.447 235.638 238.996 235.293 234.547C235.29 234.49 235.264 234.437 235.222 234.4C235.18 234.362 235.125 234.342 235.068 234.345C235.012 234.348 234.959 234.374 234.921 234.416C234.883 234.458 234.863 234.513 234.867 234.57Z" fill="#263238"/>
<path d="M144.884 260.594L250.009 252.406C250.009 252.406 229.517 171.837 188.502 129.133C179.043 119.286 167.804 126.416 162.386 132.473C148.636 147.882 144.557 260.252 144.884 260.594Z" fill="#C7C7C7"/>
<path d="M247.613 243.747L145.197 250.801C145.262 249.279 145.341 247.584 145.432 245.718L246.091 238.793C246.623 240.604 247.133 242.263 247.613 243.747Z" fill="#DBDBDB"/>
<path d="M244.691 234.486L145.607 241.335C145.699 239.716 145.793 238.022 145.889 236.251L243.047 229.578C243.635 231.282 244.183 232.918 244.691 234.486Z" fill="#DBDBDB"/>
<path d="M199.673 139.276C221.801 168.474 258.745 244.553 264.178 255.701C267.861 263.311 227.455 283.301 225.743 277.769C223.544 270.692 187.406 177.324 182.369 143.302C179.561 124.696 191.987 129.178 199.673 139.276Z" fill="#D3766A"/>
<path d="M224.624 274.01C225.568 280.896 230.324 294.753 233.87 296.838C237.416 298.923 256.006 298.505 265.381 298.505C274.756 298.505 276.605 295.933 276.445 292.767C276.285 289.602 256.622 288.962 256.622 288.962C256.622 288.962 282.898 296.359 289.503 297.569C296.108 298.779 311.334 302.545 313.533 297.165C314.53 294.738 310.36 292.28 310.36 292.28C310.36 292.28 316.752 294.114 317.764 290.994C318.921 287.448 313.845 285.492 313.845 285.492C313.845 285.492 317.833 286.253 317.932 283.392C318.13 276.924 293.148 273.743 293.148 273.743C293.148 273.743 312.278 282.875 312.932 277.617C313.785 270.312 274.573 262.306 270.494 259.126C267.528 256.696 264.75 254.046 262.185 251.197L224.624 274.01Z" fill="#D3766A"/>
<path d="M276.308 294.396C276.372 293.943 276.324 293.482 276.169 293.052C276.014 292.622 275.756 292.237 275.418 291.93C274.743 291.322 273.971 290.831 273.135 290.477C271.399 289.747 269.601 289.174 267.762 288.765C264.064 287.844 260.282 287.189 256.508 286.238C260.404 286.177 264.293 286.606 268.082 287.517C270.01 287.95 271.869 288.647 273.607 289.586C274.49 290.077 275.266 290.739 275.889 291.534C276.203 291.933 276.407 292.407 276.481 292.909C276.554 293.411 276.495 293.924 276.308 294.396Z" fill="#263238"/>
<path d="M310.36 292.333C307.659 291.687 305.034 290.941 302.332 290.18C299.631 289.419 297.006 288.658 294.388 287.844L286.474 285.409C283.834 284.594 281.193 283.795 278.53 283.012C281.296 283.308 284.039 283.788 286.74 284.45C289.449 285.059 292.12 285.82 294.768 286.611C297.417 287.402 300.057 288.277 302.652 289.244C305.247 290.21 307.834 291.215 310.36 292.333Z" fill="#263238"/>
<path d="M284.899 276.566C287.457 276.728 290 277.072 292.509 277.594C295.011 278.087 297.485 278.715 299.92 279.473C302.342 280.207 304.72 281.078 307.043 282.083C309.387 283.072 311.66 284.221 313.846 285.523C311.426 284.701 309.074 283.795 306.67 283.004C304.265 282.213 301.891 281.406 299.471 280.683C297.052 279.96 294.639 279.237 292.212 278.537C289.784 277.837 287.334 277.221 284.899 276.566Z" fill="#263238"/>
<path d="M288.742 270.41C292.855 270.732 296.909 271.586 300.803 272.952C304.716 274.215 308.447 275.988 311.897 278.225C308.017 276.871 304.242 275.433 300.377 274.169C296.511 272.906 292.661 271.651 288.742 270.41Z" fill="#263238"/>
<path d="M267.397 253.259L220.272 272.457C220.272 272.457 183.815 170.551 180.482 147.259C177.149 123.966 183.815 120.222 200.008 138.652C216.201 157.082 267.397 253.259 267.397 253.259Z" fill="#C7C7C7"/>
<path d="M259.46 244.416C258.205 244.774 256.98 245.307 255.755 245.771L251.95 247.201C249.393 248.168 246.852 249.18 244.34 250.2C239.273 252.239 234.205 254.263 229.182 256.386C227.797 256.972 226.42 257.558 225.05 258.174C223.681 258.791 222.227 259.582 220.797 260.229C220.705 260.267 220.797 260.396 220.858 260.358C222.128 259.894 223.437 259.529 224.716 259.065C225.994 258.6 227.318 258.098 228.604 257.588C231.14 256.574 233.677 255.559 236.213 254.545C241.182 252.498 246.159 250.474 251.082 248.32L255.199 246.509C256.637 245.885 258.144 245.314 259.514 244.561C259.533 244.554 259.548 244.539 259.557 244.521C259.566 244.502 259.566 244.481 259.559 244.462C259.552 244.443 259.538 244.427 259.519 244.419C259.501 244.41 259.48 244.409 259.46 244.416Z" fill="#263238"/>
<path d="M215.531 259.087C212.452 251.042 209.486 242.955 206.635 234.828C203.767 226.709 201.004 218.552 198.265 210.379C195.526 202.207 192.938 194.004 190.435 185.763C187.931 177.521 185.534 169.235 183.525 160.857L185.489 167.013L187.505 173.146L191.584 185.443L199.726 209.945C202.42 218.118 205.121 226.291 207.762 234.486C210.402 242.681 213.005 250.884 215.531 259.087Z" fill="#263238"/>
<path d="M186.737 171.837C186.196 171.372 185.721 170.838 185.321 170.247C184.917 169.67 184.553 169.064 184.233 168.436C183.581 167.182 183.117 165.838 182.856 164.448C183.251 165.029 183.615 165.631 183.944 166.252C184.287 166.861 184.591 167.477 184.911 168.093C185.512 169.326 186.113 170.551 186.737 171.837Z" fill="#263238"/>
<path d="M182.308 101.214C182.308 101.214 182.019 107.781 182.605 110.056C183.19 112.331 188.319 114.72 188.319 114.72C188.319 114.72 182.483 116.79 180.824 116.395C179.165 115.999 176.487 111.745 176.487 111.745C176.487 111.745 178.952 118.556 181.326 118.913C182.795 119.134 177.712 119.187 177.712 119.187C176.027 119.071 174.444 118.337 173.268 117.125C171.518 115.169 182.308 101.214 182.308 101.214Z" fill="#263238"/>
<path d="M164.943 147.487C171.251 147.434 179.257 135.822 181.486 127.459C181.638 126.888 174.577 107.179 173.58 103.108C173.382 102.271 149.656 115.512 149.656 115.512C149.656 115.512 154.221 123.388 155.926 130.464C156.063 131.081 158.848 147.533 164.943 147.487Z" fill="#D3766A"/>
<path d="M149.656 115.535C149.656 115.535 154.221 123.41 155.934 130.487C155.934 130.624 156.139 131.652 156.474 133.143C168.291 129.064 174.166 119.758 176.89 113.434C175.368 108.968 173.983 104.767 173.588 103.131C173.375 102.302 149.656 115.535 149.656 115.535Z" fill="#263238"/>
<path d="M181.981 75.501C184.971 84.7237 180.512 111.6 174.006 117.68C164.578 126.492 148.895 127.573 141.354 116.204C134.026 105.186 140.456 70.2657 147.746 64.7184C158.475 56.5458 177.605 61.8725 181.981 75.501Z" fill="#D3766A"/>
<path d="M157.113 90.8874C157.921 90.8544 158.726 90.7756 159.525 90.6515C160.385 90.6886 161.234 90.4397 161.937 89.9438C162.131 89.7454 162.254 89.4877 162.284 89.2117C162.314 88.9358 162.251 88.6577 162.105 88.4219C161.427 87.4479 160.263 87.2881 159.145 87.3642C158.005 87.3978 156.919 87.8565 156.101 88.6502C155.922 88.8424 155.805 89.083 155.762 89.3418C155.72 89.6006 155.755 89.8661 155.863 90.1051C155.972 90.344 156.148 90.5457 156.37 90.6848C156.592 90.824 156.851 90.8945 157.113 90.8874Z" fill="#263238"/>
<path d="M146.711 90.5985C146.711 90.53 146.551 90.6593 146.543 90.7354C146.3 92.5541 145.714 94.6011 143.971 94.9283C143.918 94.9283 143.91 95.0348 143.971 95.0348C146.018 95.0881 146.772 92.3639 146.711 90.5985Z" fill="#263238"/>
<path d="M145.402 88.4373C142.526 87.7296 141.331 93.5433 143.994 94.1901C146.658 94.8369 147.814 89.0308 145.402 88.4373Z" fill="#263238"/>
<path d="M143.499 83.5443C144.298 83.6904 145.103 83.7946 145.912 83.8563C146.744 84.0883 147.63 84.0374 148.43 83.7118C148.665 83.5628 148.843 83.3392 148.935 83.0771C149.028 82.8149 149.03 82.5292 148.94 82.266C148.507 81.1626 147.418 80.7441 146.292 80.5614C145.178 80.342 144.023 80.5455 143.051 81.1321C142.835 81.2784 142.667 81.4843 142.567 81.7246C142.467 81.9648 142.439 82.2291 142.486 82.485C142.534 82.7409 142.655 82.9774 142.835 83.1656C143.015 83.3537 143.246 83.4853 143.499 83.5443Z" fill="#263238"/>
<path d="M156.634 109.165C156.124 109.523 155.599 110.033 154.929 109.98C154.259 109.859 153.621 109.6 153.057 109.219C153.046 109.21 153.033 109.206 153.019 109.206C153.005 109.206 152.992 109.211 152.981 109.22C152.97 109.229 152.963 109.241 152.96 109.255C152.957 109.268 152.959 109.282 152.966 109.295C153.164 109.696 153.468 110.035 153.845 110.276C154.222 110.517 154.657 110.652 155.104 110.664C155.489 110.628 155.855 110.479 156.156 110.235C156.456 109.991 156.678 109.664 156.793 109.295C156.839 109.181 156.702 109.12 156.634 109.165Z" fill="#263238"/>
<path d="M155.629 103.428C155.05 104.066 154.346 104.579 153.561 104.934C152.775 105.288 151.925 105.478 151.064 105.49C150.309 105.508 149.556 105.418 148.826 105.224C148.683 105.196 148.543 105.155 148.408 105.102L148.02 104.973C147.926 104.939 147.846 104.876 147.792 104.792C147.738 104.707 147.714 104.608 147.723 104.509C147.728 104.446 147.744 104.384 147.769 104.326V104.166C147.959 102.766 148.446 100.666 148.446 100.666C147.898 100.833 145.105 101.571 145.265 100.848C146.627 94.875 148.142 88.2319 150.759 82.5856C150.773 82.5433 150.804 82.5082 150.844 82.4882C150.884 82.4683 150.93 82.465 150.972 82.4791C151.015 82.4932 151.05 82.5236 151.07 82.5636C151.09 82.6035 151.093 82.6498 151.079 82.6922C149.998 88.483 147.906 94.0455 146.726 99.8516C147.717 99.5759 148.742 99.4402 149.77 99.4483C149.96 99.5396 148.758 103.489 148.72 104.128V104.197C151.003 104.889 152.905 104.471 155.439 103.276C155.637 103.154 155.759 103.299 155.629 103.428Z" fill="#263238"/>
<path d="M162.607 92.7291C162.087 92.4769 161.533 92.3001 160.963 92.204C160.377 92.1075 159.78 92.0947 159.19 92.1659C158.569 92.2491 157.97 92.4506 157.425 92.7595C156.868 93.0928 156.395 93.5481 156.04 94.0911L155.401 95.0728H156.58C157.417 95.0553 158.254 95.1241 159.076 95.2782C159.932 95.4168 160.738 95.7703 161.42 96.3055C161.006 95.4271 160.267 94.7446 159.358 94.4031C158.464 94.0285 157.504 93.837 156.535 93.84L157.075 94.7988C157.648 94.0209 158.469 93.4623 159.403 93.2161C160.447 92.9201 161.523 92.7565 162.607 92.7291Z" fill="#263238"/>
<path d="M158.886 97.1044C158.022 96.8282 157.198 96.4393 156.436 95.9477C156.261 95.8108 155.591 95.2325 155.675 95.0879C155.804 94.6587 155.991 94.2491 156.23 93.8704C155.879 94.198 155.6 94.5943 155.408 95.0346C155.447 95.2895 155.542 95.5328 155.685 95.7472C155.828 95.9615 156.017 96.1417 156.238 96.275C157.032 96.7805 157.945 97.0667 158.886 97.1044Z" fill="#263238"/>
<path d="M181.539 100.803C176.7 98.946 175.665 82.0605 175.665 82.0605L173.892 91.131C171.722 88.9523 170.029 86.3452 168.923 83.4759C167.903 80.4321 168.664 76.361 169.319 74.3902C169.319 74.3902 163.071 78.4765 156.573 79.5798C154.183 79.9908 139.071 78.933 139.147 77.8601C139.429 74.6793 145.006 64.2011 149.595 61.6443C154.876 58.6994 166.982 55.2599 176.905 60.1224C184.842 64.0032 183.48 70.2887 184.88 74.8924C184.88 74.8924 190.427 80.219 190.503 82.7073C190.656 88.0416 183.32 101.488 181.539 100.803Z" fill="#263238"/>
<path d="M157.06 102.637C155.118 101.954 153.527 100.529 152.636 98.674C151.744 96.8194 151.625 94.6868 152.304 92.7442C152.784 91.3728 153.639 90.1636 154.772 89.2543C155.906 88.345 157.272 87.7721 158.715 87.6008C160.157 87.4295 161.619 87.6666 162.934 88.2853C164.249 88.9039 165.364 89.8792 166.152 91.1002C166.939 92.3211 167.369 93.7387 167.39 95.1916C167.412 96.6444 167.026 98.0743 166.275 99.3184C165.524 100.562 164.44 101.571 163.144 102.229C161.848 102.887 160.394 103.168 158.947 103.04C158.303 102.987 157.669 102.851 157.06 102.637ZM153.255 93.0867C152.815 94.3422 152.758 95.6999 153.09 96.988C153.422 98.2762 154.128 99.4371 155.119 100.324C156.111 101.211 157.343 101.784 158.66 101.97C159.977 102.157 161.32 101.948 162.519 101.372C163.718 100.795 164.719 99.8763 165.395 98.731C166.072 97.5856 166.394 96.2654 166.32 94.9372C166.246 93.609 165.781 92.3324 164.982 91.2689C164.182 90.2055 163.086 89.4028 161.831 88.9623C161.302 88.7774 160.753 88.6573 160.195 88.6047C158.705 88.4789 157.216 88.8506 155.96 89.6616C154.704 90.4726 153.753 91.6772 153.255 93.0867Z" fill="#B3B3B3"/>
<path d="M141.354 99.3265C138.203 98.8319 136.187 94.9891 136.849 90.7582C137.12 88.8414 137.982 87.0566 139.314 85.6522C139.849 85.0133 140.54 84.5237 141.32 84.231C142.099 83.9383 142.942 83.8525 143.765 83.982C144.588 84.1115 145.363 84.4518 146.015 84.9699C146.668 85.4879 147.175 86.1661 147.487 86.9383C148.319 88.6854 148.585 90.6485 148.248 92.554C147.616 96.5566 144.801 99.4939 141.833 99.4026C141.672 99.3876 141.512 99.3622 141.354 99.3265ZM140.045 86.3904C138.861 87.6469 138.102 89.2443 137.876 90.9561C137.298 94.6238 138.934 97.9339 141.514 98.3373C144.093 98.7406 146.665 96.0925 147.244 92.4323C147.544 90.7409 147.307 88.998 146.566 87.4481C146.301 86.8404 145.894 86.3054 145.379 85.8882C144.864 85.471 144.256 85.1839 143.606 85.0511C143.475 85.0312 143.343 85.0185 143.21 85.0131C142.617 85.0091 142.028 85.1288 141.483 85.3646C140.938 85.6004 140.449 85.9472 140.045 86.3828V86.3904Z" fill="#B3B3B3"/>
<path d="M152.334 93.6727L153.149 93.0335C152.197 91.8236 149.8 89.9897 147.533 91.5725L148.134 92.4171C150.166 90.9789 152.251 93.5661 152.334 93.6727Z" fill="#B3B3B3"/>
<path d="M185.801 102.652L186.797 102.378C186.668 101.906 185.466 97.812 183.267 96.9597C181.22 96.1988 167.332 94.6312 166.739 94.5627L166.625 95.5976C170.612 96.039 181.319 97.325 182.901 97.9261C184.347 98.4816 185.481 101.525 185.801 102.652Z" fill="#B3B3B3"/>
<path d="M176.205 98.7861C176.205 98.7861 182.217 90.0885 186.166 92.2267C190.115 94.365 185.626 106.951 181.014 108.694C180.438 108.957 179.814 109.102 179.181 109.119C178.547 109.137 177.917 109.026 177.327 108.793C176.737 108.561 176.201 108.212 175.749 107.767C175.297 107.323 174.94 106.791 174.698 106.205L176.205 98.7861Z" fill="#D3766A"/>
<path d="M184.789 95.8032C184.805 95.8032 184.82 95.8096 184.832 95.8211C184.843 95.8325 184.85 95.848 184.85 95.8641C184.85 95.8802 184.843 95.8957 184.832 95.9071C184.82 95.9186 184.805 95.925 184.789 95.925C181.555 97.249 179.865 100.262 178.701 103.382C179.66 102.18 180.984 101.51 182.582 102.621C182.666 102.682 182.582 102.812 182.491 102.796C181.921 102.617 181.31 102.619 180.742 102.801C180.173 102.984 179.676 103.339 179.317 103.816C178.72 104.619 178.21 105.484 177.796 106.396C177.643 106.685 177.118 106.533 177.225 106.198V106.129C177.179 102.028 180.36 96.237 184.789 95.8032Z" fill="#263238"/>
<path d="M156.139 131.56L163.908 144.93L180.056 122.68L186.265 127.824C186.265 127.824 172.279 160.332 171.975 158.985L163.817 147.487L155.759 157.874L154.328 135.403L156.139 131.56Z" fill="#EBEBEB"/>
<path d="M154.168 135.646C154.168 135.509 154.397 135.411 154.412 135.57C154.944 139.687 155.804 154.115 156.093 156.641L156.131 156.595C156.436 156.154 163.741 147.38 163.817 147.464C165.476 149.275 171.427 157.569 171.883 158.361C173.945 153.163 182.886 134.429 185.519 129.407C185.531 129.374 185.556 129.348 185.587 129.334C185.619 129.32 185.654 129.318 185.687 129.331C185.719 129.343 185.745 129.367 185.759 129.398C185.774 129.43 185.775 129.466 185.763 129.498C184.073 134.901 172.583 160.179 172.355 160.149C172.218 160.286 164.821 150.021 163.802 147.974C162.744 149.815 155.492 159.555 155.431 159.008C155.013 155.766 154.168 139.116 154.168 135.646Z" fill="#263238"/>
<path d="M89.3353 101.739C90.0264 102.386 90.7752 102.97 91.5725 103.481C91.7551 103.603 91.953 103.717 92.1508 103.831C92.3487 103.945 92.5008 104.037 92.6835 104.128L93.0563 104.326L98.6797 107.096C98.1673 106.85 97.6716 106.57 97.1959 106.259C96.7859 105.998 96.3896 105.716 96.0088 105.414C95.6512 105.14 95.3011 104.836 94.9511 104.516C86.4133 96.5566 86.9992 79.9908 96.2599 67.5188C103.398 57.8928 113.594 53.5098 121.813 55.648C122.835 55.9074 123.828 56.2747 124.773 56.7438L119.149 53.9663C119.135 53.9604 119.118 53.9604 119.104 53.9663C118.868 53.837 118.617 53.7304 118.343 53.6239C118.069 53.5174 117.917 53.4413 117.696 53.3652L117.399 53.2586L116.897 53.0912L116.608 53.0075C111.593 51.5389 105.787 52.5662 100.384 55.7622L99.5624 56.2644C96.0845 58.5258 93.0492 61.4038 90.6061 64.7566C81.3834 77.2285 80.7898 93.7944 89.3353 101.739Z" fill="#37474F"/>
<path d="M129.871 98.847C120.458 111.524 106.502 116.448 96.3892 111.471L90.7734 108.694C100.841 113.678 114.804 108.747 124.255 96.0696C135.106 81.4365 135.791 61.9867 125.777 52.6499C124.965 51.8924 124.087 51.2098 123.152 50.6105C122.592 50.2511 122.013 49.9234 121.417 49.6289L127.033 52.3988C127.626 52.7031 128.212 53.0303 128.783 53.388C129.714 53.9893 130.59 54.6718 131.4 55.4273C141.415 64.7718 140.73 84.2368 129.871 98.847Z" fill="#37474F"/>
<path d="M86.436 105.673C87.2472 106.428 88.1231 107.11 89.0536 107.712C89.7362 108.149 90.4481 108.538 91.1843 108.876C91.2067 108.882 91.2303 108.882 91.2528 108.876C91.5648 109.021 91.8691 109.15 92.1811 109.272C92.3714 109.356 92.554 109.417 92.7518 109.485C95.4369 110.42 98.2918 110.765 101.122 110.497C101.769 110.444 102.416 110.36 103.055 110.254C104.045 110.09 105.023 109.863 105.985 109.576L106.966 109.272C107.621 109.051 108.275 108.808 108.914 108.511C109.554 108.214 110.231 107.94 110.87 107.613C111.509 107.286 112.164 106.936 112.795 106.556C117.281 103.844 121.18 100.263 124.263 96.024C135.106 81.3986 135.799 61.9487 125.785 52.6043C125.374 52.2162 124.94 51.8433 124.506 51.5161C124.072 51.1889 123.624 50.8617 123.167 50.5649C122.908 50.4051 122.65 50.2454 122.406 50.0932L122.223 49.9942C122.01 49.8649 121.782 49.7507 121.561 49.6366C111.471 44.5611 97.4469 49.4844 88.0035 62.2075C77.0991 76.8862 76.3991 96.3284 86.436 105.673ZM90.644 64.7566C93.0871 61.4039 96.1225 58.5259 99.6004 56.2645L100.422 55.7622C105.825 52.5662 111.631 51.539 116.646 53.0076L116.935 53.0913L117.437 53.2587L117.734 53.3652C117.954 53.4413 118.16 53.5326 118.381 53.624C118.601 53.7153 118.875 53.837 119.142 53.9664C119.156 53.9605 119.173 53.9605 119.187 53.9664C120.136 54.4246 121.029 54.9888 121.85 55.6481C122.216 55.9283 122.567 56.2281 122.901 56.546C131.438 64.5131 130.86 81.0866 121.607 93.5585C114.469 103.177 104.265 107.56 96.0468 105.414C94.8919 105.117 93.7758 104.685 92.7214 104.128C92.5388 104.037 92.3638 103.938 92.1887 103.831C92.0137 103.725 91.793 103.603 91.6104 103.481C90.7999 102.972 90.0383 102.388 89.3352 101.739C80.7897 93.7944 81.3833 77.2286 90.644 64.7566Z" fill="#455A64"/>
<path opacity="0.4" d="M94.9586 104.531C95.3087 104.851 95.6587 105.155 96.0163 105.429C104.235 107.575 114.439 103.192 121.577 93.5737C130.83 81.1018 131.408 64.5283 122.87 56.5612C122.537 56.2433 122.186 55.9435 121.82 55.6633C113.602 53.525 103.405 57.9461 96.2675 67.534C87.0067 80.006 86.4208 96.5718 94.9586 104.531Z" fill="#F9FAFB"/>
<g opacity="0.3">
<path d="M108.701 57.17L126.074 85.7588C126.836 83.9669 127.455 82.117 127.923 80.2267L113.016 55.7166C111.533 56.056 110.088 56.5429 108.701 57.17Z" fill="#EBEBEB"/>
<path d="M119.012 55.199L128.905 71.4909C128.737 65.5403 126.743 60.168 122.878 56.5611C122.544 56.2432 122.194 55.9434 121.828 55.6632C120.905 55.4248 119.963 55.2694 119.012 55.199Z" fill="#EBEBEB"/>
<path d="M105.604 58.806L124.248 89.4417C124.674 88.6808 125.085 87.9198 125.442 87.1208L107.545 57.7102C106.898 58.045 106.251 58.4027 105.604 58.806Z" fill="#EBEBEB"/>
<path d="M89.1602 84.9978C88.9956 86.2899 88.9168 87.5914 88.9243 88.8939L99.2808 105.916C100.144 105.985 101.012 105.985 101.876 105.916L89.1602 84.9978Z" fill="#EBEBEB"/>
<path d="M91.7932 75.3185L109.196 103.907C112.02 102.609 114.622 100.873 116.905 98.7633L97.1883 66.3545C96.8764 66.735 96.572 67.1154 96.2676 67.534C94.4746 69.9434 92.9727 72.5564 91.7932 75.3185Z" fill="#EBEBEB"/>
</g>
<path d="M241.35 41.7302C241.351 46.3183 240.077 50.8164 237.67 54.7224C235.263 58.6283 231.818 61.7885 227.719 63.8501C223.621 65.9118 219.03 66.7937 214.459 66.3974C209.888 66.0012 205.517 64.3424 201.834 61.6062L189.705 64.7033L194.757 53.4108C192.981 50.0917 191.985 46.4113 191.845 42.6494C191.705 38.8875 192.424 35.1431 193.948 31.7011C195.473 28.259 197.762 25.2098 200.642 22.7853C203.521 20.3608 206.916 18.6248 210.568 17.7094C214.219 16.794 218.031 16.7232 221.714 17.5025C225.397 18.2817 228.854 19.8905 231.822 22.2064C234.79 24.5223 237.191 27.4844 238.842 30.8676C240.493 34.2507 241.351 37.9657 241.35 41.7302Z" fill="#F9FAFB"/>
</svg>
