<svg width="189" height="141" viewBox="0 0 189 141" fill="none" xmlns="http://www.w3.org/2000/svg">
<path d="M189 123.758H0V123.852H189V123.758Z" fill="#EBEBEB"/>
<path d="M65.4774 126.169H56.7153V126.263H65.4774V126.169Z" fill="#EBEBEB"/>
<path d="M173.414 128.195H151.993V128.29H173.414V128.195Z" fill="#EBEBEB"/>
<path d="M37.5695 128.195H16.1482V128.29H37.5695V128.195Z" fill="#EBEBEB"/>
<path d="M89.5855 106.898H16.5975C16.0257 106.897 15.4777 106.67 15.0737 106.265C14.6698 105.86 14.4429 105.312 14.4429 104.74V2.13948C14.4478 1.57098 14.6769 1.0274 15.0803 0.626807C15.4838 0.226217 16.0289 0.000973875 16.5975 0H89.5855C90.1579 0 90.7069 0.2274 91.1117 0.632175C91.5165 1.03695 91.7439 1.58594 91.7439 2.15838V104.74C91.7439 105.312 91.5165 105.861 91.1117 106.266C90.7069 106.671 90.1579 106.898 89.5855 106.898ZM16.5975 0.0756003C16.0508 0.0766016 15.5268 0.294487 15.1405 0.681431C14.7543 1.06837 14.5374 1.59276 14.5374 2.13948V104.74C14.5374 105.287 14.7543 105.811 15.1405 106.198C15.5268 106.585 16.0508 106.803 16.5975 106.804H89.5855C90.1323 106.802 90.6561 106.584 91.0427 106.197C91.4293 105.811 91.6474 105.287 91.6494 104.74V2.13948C91.6474 1.59272 91.4293 1.06892 91.0427 0.682297C90.6561 0.295676 90.1323 0.0775922 89.5855 0.0756003H16.5975Z" fill="#EBEBEB"/>
<path d="M171.35 106.898H98.3586C97.7867 106.896 97.2389 106.668 96.8346 106.264C96.4302 105.86 96.2022 105.312 96.2002 104.74V2.13948C96.2062 1.57063 96.4361 1.02706 96.8401 0.62657C97.2441 0.226085 97.7897 0.000963254 98.3586 0H171.35C171.918 0.0019673 172.462 0.22765 172.865 0.628133C173.268 1.02862 173.496 1.57163 173.501 2.13948V104.74C173.502 105.023 173.446 105.303 173.339 105.565C173.231 105.826 173.073 106.064 172.873 106.265C172.673 106.465 172.436 106.624 172.175 106.733C171.913 106.842 171.633 106.898 171.35 106.898ZM98.3586 0.0756003C97.8118 0.0775922 97.288 0.295676 96.9014 0.682297C96.5148 1.06892 96.2967 1.59272 96.2947 2.13948V104.74C96.2967 105.287 96.5148 105.811 96.9014 106.197C97.288 106.584 97.8118 106.802 98.3586 106.804H171.35C171.897 106.802 172.421 106.584 172.808 106.197C173.194 105.811 173.412 105.287 173.414 104.74V2.13948C173.412 1.59272 173.194 1.06892 172.808 0.682297C172.421 0.295676 171.897 0.0775922 171.35 0.0756003H98.3586Z" fill="#EBEBEB"/>
<path d="M119.096 93.7554H110.368V123.961H119.096V93.7554Z" fill="#E6E6E6"/>
<path d="M112.916 93.7554H104.188V123.961H112.916V93.7554Z" fill="#E6E6E6"/>
<path d="M111.26 123.961H112.916V119.244H109.517L111.26 123.961Z" fill="#F0F0F0"/>
<path d="M69.0413 93.7554H60.3132V123.961H69.0413V93.7554Z" fill="#E6E6E6"/>
<path d="M112.92 93.7554H67.5974V121.64H112.92V93.7554Z" fill="#F0F0F0"/>
<path d="M110.096 115.366H92.3302C91.8727 115.364 91.4345 115.181 91.1109 114.857C90.7874 114.534 90.6048 114.096 90.6028 113.638V96.6622C90.6038 96.2047 90.7862 95.7662 91.1101 95.4431C91.4339 95.12 91.8727 94.9385 92.3302 94.9385H110.077C110.535 94.9385 110.974 95.12 111.298 95.4431C111.621 95.7662 111.804 96.2047 111.805 96.6622V113.638C111.803 114.092 111.623 114.528 111.303 114.851C110.984 115.174 110.55 115.359 110.096 115.366ZM92.3302 95.3316C91.9746 95.3316 91.6335 95.4723 91.3814 95.7231C91.1292 95.9738 90.9866 96.3141 90.9846 96.6697V113.646C90.9826 113.822 91.0154 113.998 91.0812 114.162C91.147 114.326 91.2444 114.475 91.368 114.602C91.4915 114.728 91.6388 114.829 91.8013 114.898C91.9638 114.968 92.1384 115.005 92.3151 115.006H110.081C110.437 115.009 110.78 114.869 111.034 114.619C111.287 114.369 111.431 114.028 111.434 113.672V96.6622C111.434 96.4861 111.4 96.3118 111.332 96.1492C111.265 95.9866 111.166 95.8389 111.041 95.7146C110.916 95.5903 110.768 95.4918 110.606 95.4248C110.443 95.3578 110.269 95.3235 110.092 95.324L92.3302 95.3316Z" fill="#E0E0E0"/>
<path d="M88.1639 115.366H70.3979C69.9403 115.364 69.5021 115.181 69.1786 114.857C68.855 114.534 68.6724 114.096 68.6704 113.638V96.6622C68.6714 96.2047 68.8539 95.7662 69.1777 95.4431C69.5016 95.12 69.9404 94.9385 70.3979 94.9385H88.1639C88.6214 94.9385 89.0602 95.12 89.384 95.4431C89.7079 95.7662 89.8903 96.2047 89.8913 96.6622V113.638C89.8903 114.096 89.708 114.535 89.3843 114.859C89.0605 115.182 88.6217 115.365 88.1639 115.366ZM70.3979 95.3316C70.2218 95.3311 70.0474 95.3653 69.8846 95.4324C69.7219 95.4994 69.5739 95.5979 69.4492 95.7222C69.3246 95.8465 69.2257 95.9942 69.1582 96.1568C69.0907 96.3194 69.056 96.4937 69.056 96.6697V113.646C69.056 113.822 69.0907 113.996 69.1581 114.159C69.2256 114.322 69.3244 114.47 69.449 114.595C69.5736 114.719 69.7215 114.818 69.8843 114.885C70.0472 114.953 70.2217 114.988 70.3979 114.988H88.1639C88.5198 114.987 88.8609 114.845 89.113 114.594C89.365 114.342 89.5076 114.002 89.5096 113.646V96.6622C89.5076 96.3066 89.3649 95.9662 89.1127 95.7155C88.8606 95.4648 88.5195 95.324 88.1639 95.324L70.3979 95.3316Z" fill="#E0E0E0"/>
<path d="M86.5161 100.302C86.1866 100.302 85.8644 100.205 85.5904 100.022C85.3163 99.8385 85.1027 99.5784 84.9764 99.274C84.8501 98.9697 84.8169 98.6347 84.8809 98.3114C84.9449 97.9882 85.1033 97.6911 85.336 97.4578C85.5688 97.2246 85.8655 97.0655 86.1886 97.0008C86.5117 96.936 86.8467 96.9685 87.1514 97.0941C87.4561 97.2197 87.7167 97.4327 87.9003 97.7064C88.0839 97.98 88.1823 98.3019 88.1831 98.6315C88.1831 99.0739 88.0076 99.4983 87.6951 99.8115C87.3825 100.125 86.9586 100.301 86.5161 100.302Z" fill="#FAFAFA"/>
<path d="M93.9932 100.302C93.6635 100.304 93.3406 100.209 93.0652 100.028C92.7899 99.8462 92.5744 99.5873 92.4462 99.2836C92.318 98.9799 92.2827 98.6449 92.3448 98.3211C92.4069 97.9974 92.5637 97.6993 92.7952 97.4646C93.0267 97.2298 93.3227 97.0691 93.6456 97.0025C93.9685 96.936 94.3039 96.9668 94.6093 97.0908C94.9148 97.2149 95.1766 97.4268 95.3616 97.6997C95.5467 97.9726 95.6466 98.2942 95.6489 98.6239V98.6579C95.6439 99.0944 95.4675 99.5115 95.1578 99.8191C94.848 100.127 94.4298 100.3 93.9932 100.302Z" fill="#FAFAFA"/>
<path d="M69.2534 123.961H67.594V119.244H70.9922L69.2534 123.961Z" fill="#F0F0F0"/>
<path d="M66.2629 93.7554H57.5349V123.961H66.2629V93.7554Z" fill="#E6E6E6"/>
<path d="M64.6033 123.961H66.2627V119.244H62.8645L64.6033 123.961Z" fill="#F0F0F0"/>
<path d="M66.2629 93.7554H20.9407V121.64H66.2629V93.7554Z" fill="#F0F0F0"/>
<path d="M63.439 115.366H45.673C45.2149 115.366 44.7755 115.184 44.4515 114.86C44.1276 114.536 43.9456 114.096 43.9456 113.638V96.6622C43.9466 96.2047 44.129 95.7662 44.4529 95.4431C44.7767 95.12 45.2155 94.9385 45.673 94.9385H63.4201C63.8776 94.9385 64.3164 95.12 64.6403 95.4431C64.9641 95.7662 65.1466 96.2047 65.1476 96.6622V113.638C65.1476 114.093 64.9682 114.53 64.6483 114.853C64.3284 115.176 63.8939 115.361 63.439 115.366ZM45.673 95.3316C45.497 95.3311 45.3226 95.3653 45.1598 95.4324C44.997 95.4994 44.849 95.5979 44.7244 95.7222C44.5997 95.8465 44.5008 95.9942 44.4333 96.1568C44.3659 96.3194 44.3311 96.4937 44.3311 96.6697V113.646C44.3291 113.822 44.362 113.998 44.4277 114.162C44.4935 114.326 44.591 114.475 44.7145 114.602C44.8381 114.728 44.9853 114.829 45.1478 114.898C45.3104 114.968 45.485 115.005 45.6617 115.006H63.4277C63.7843 115.009 64.1272 114.869 64.3815 114.619C64.6357 114.369 64.7807 114.029 64.7847 113.672V96.6622C64.7827 96.3072 64.6406 95.9675 64.3892 95.7168C64.1379 95.4662 63.7977 95.325 63.4428 95.324L45.673 95.3316Z" fill="#E0E0E0"/>
<path d="M41.5081 115.366H23.7648C23.3067 115.366 22.8673 115.184 22.5433 114.86C22.2194 114.536 22.0374 114.096 22.0374 113.638V96.6622C22.0374 96.4355 22.0821 96.211 22.1689 96.0017C22.2558 95.7923 22.3831 95.6021 22.5435 95.442C22.704 95.2819 22.8945 95.155 23.104 95.0686C23.3136 94.9822 23.5381 94.938 23.7648 94.9385H41.5081C41.7348 94.938 41.9594 94.9822 42.1689 95.0686C42.3785 95.155 42.5689 95.2819 42.7294 95.442C42.8899 95.6021 43.0172 95.7923 43.104 96.0017C43.1909 96.211 43.2356 96.4355 43.2356 96.6622V113.638C43.2346 114.096 43.0523 114.535 42.7285 114.859C42.4048 115.182 41.966 115.365 41.5081 115.366ZM23.7648 95.3316C23.5885 95.3306 23.4136 95.3645 23.2504 95.4313C23.0872 95.4981 22.9388 95.5965 22.8137 95.7208C22.6887 95.8452 22.5894 95.9931 22.5217 96.1559C22.454 96.3187 22.4191 96.4934 22.4191 96.6697V113.646C22.4171 113.822 22.45 113.998 22.5158 114.162C22.5815 114.326 22.679 114.475 22.8026 114.602C22.9261 114.728 23.0734 114.829 23.2359 114.898C23.3984 114.968 23.573 115.005 23.7497 115.006H41.5157C41.6922 115.007 41.8671 114.973 42.0304 114.905C42.1936 114.838 42.342 114.739 42.467 114.615C42.592 114.49 42.6912 114.342 42.7589 114.179C42.8265 114.016 42.8614 113.841 42.8614 113.665V96.6546C42.8614 96.4782 42.8265 96.3036 42.7588 96.1408C42.6911 95.9779 42.5918 95.8301 42.4668 95.7057C42.3417 95.5814 42.1933 95.483 42.0301 95.4162C41.8669 95.3494 41.6921 95.3155 41.5157 95.3165L23.7648 95.3316Z" fill="#E0E0E0"/>
<path d="M39.8636 100.302C39.5339 100.303 39.2114 100.206 38.9369 100.023C38.6623 99.8408 38.4481 99.581 38.3212 99.2767C38.1944 98.9723 38.1606 98.6373 38.2242 98.3137C38.2878 97.9902 38.4458 97.6928 38.6784 97.4592C38.9111 97.2255 39.2077 97.0661 39.5309 97.001C39.8541 96.936 40.1894 96.9682 40.4943 97.0937C40.7992 97.2192 41.06 97.4323 41.2438 97.706C41.4276 97.9797 41.5261 98.3018 41.5268 98.6315C41.5278 98.8505 41.4855 99.0676 41.4024 99.2703C41.3193 99.4729 41.1969 99.6572 41.0424 99.8124C40.8878 99.9677 40.7041 100.091 40.5019 100.175C40.2996 100.259 40.0827 100.302 39.8636 100.302Z" fill="#FAFAFA"/>
<path d="M47.3411 100.302C47.0114 100.304 46.6885 100.209 46.4131 100.028C46.1378 99.8462 45.9223 99.5873 45.7941 99.2836C45.6659 98.9799 45.6306 98.6449 45.6927 98.3211C45.7548 97.9974 45.9116 97.6993 46.1431 97.4646C46.3746 97.2298 46.6706 97.0691 46.9935 97.0025C47.3164 96.936 47.6518 96.9668 47.9572 97.0908C48.2627 97.2149 48.5245 97.4268 48.7095 97.6997C48.8946 97.9726 48.9945 98.2942 48.9968 98.6239V98.6579C48.9918 99.0944 48.8154 99.5115 48.5057 99.8191C48.1959 100.127 47.7777 100.3 47.3411 100.302Z" fill="#FAFAFA"/>
<path d="M22.5963 123.961H20.9407V119.244H24.3351L22.5963 123.961Z" fill="#F0F0F0"/>
<path d="M101.031 10.0244H84.7922V26.2633H101.031V10.0244Z" fill="#EBEBEB"/>
<path d="M101.754 10.0286H101.036V26.2674H101.754V10.0286Z" fill="#E0E0E0"/>
<path d="M98.8353 12.2285H86.9963V24.0675H98.8353V12.2285Z" fill="white"/>
<path d="M94.897 20.1247C94.6368 20.3854 94.3278 20.5922 93.9876 20.7334C93.6474 20.8745 93.2827 20.9471 92.9144 20.9471C92.546 20.9471 92.1813 20.8745 91.8411 20.7334C91.5009 20.5922 91.1919 20.3854 90.9317 20.1247C90.4073 19.5989 90.1128 18.8866 90.1128 18.144C90.1128 17.4014 90.4073 16.6891 90.9317 16.1633C91.4582 15.6386 92.1711 15.344 92.9144 15.344C93.6576 15.344 94.3705 15.6386 94.897 16.1633C95.4214 16.6891 95.7159 17.4014 95.7159 18.144C95.7159 18.8866 95.4214 19.5989 94.897 20.1247Z" fill="#F5F5F5"/>
<path d="M85.1253 30.9053H66.0854V49.9451H85.1253V30.9053Z" fill="#EBEBEB"/>
<path d="M85.9682 30.9089H85.1252V49.9488H85.9682V30.9089Z" fill="#E0E0E0"/>
<path d="M82.5467 33.4871H68.6665V47.3672H82.5467V33.4871Z" fill="white"/>
<path d="M78.5633 37.4641H72.6438V43.3836H78.5633V37.4641Z" fill="#F5F5F5"/>
<path d="M170.289 24.7817H159.981V27.1896H170.289V24.7817Z" fill="#E6E6E6"/>
<path d="M159.981 24.7817H117.312V27.1896H159.981V24.7817Z" fill="#F5F5F5"/>
<path d="M141.557 11.9978H129.544V24.7855H141.557V11.9978Z" fill="#E0E0E0"/>
<path d="M129.544 11.9978H126.467V24.7855H129.544V11.9978Z" fill="#F0F0F0"/>
<path d="M144.705 10.0244H135.683V24.7815H144.705V10.0244Z" fill="#E6E6E6"/>
<path d="M135.686 10.0244H133.078V24.7815H135.686V10.0244Z" fill="#F0F0F0"/>
<path d="M145.953 11.9978H138.344V24.7855H145.953V11.9978Z" fill="#F0F0F0"/>
<path d="M138.344 11.9978H136.605V24.7855H138.344V11.9978Z" fill="#FAFAFA"/>
<path d="M154.549 14.1599H144.57V24.7817H154.549V14.1599Z" fill="#E6E6E6"/>
<path d="M144.569 14.1599H142.014V24.7817H144.569V14.1599Z" fill="#FAFAFA"/>
<path d="M157.165 12.5229H149.669V24.7853H157.165V12.5229Z" fill="#E6E6E6"/>
<path d="M149.669 12.5229H147.503V24.7853H149.669V12.5229Z" fill="#F0F0F0"/>
<path d="M159.156 14.1599H151.876V24.7817H159.156V14.1599Z" fill="#F0F0F0"/>
<path d="M151.876 14.1599H150.432V24.7817H151.876V14.1599Z" fill="#FAFAFA"/>
<path d="M153.88 96.1709C157.108 91.9524 164.793 90.3837 167.45 87.7226C170.928 84.2336 170.913 78.9983 167.949 77.1083C165.379 75.4678 156.851 86.5583 155.895 87.8057C152.587 92.0734 151.631 95.2372 151.011 98.3028C151.083 95.6984 151.151 93.3019 151.207 91.4572C151.385 85.4357 151.608 83.4965 151.714 82.9031C152.092 82.6082 152.493 82.2718 152.735 82.0904C154.798 80.5519 159.372 78.7186 161.659 76.4846C165.001 73.2187 164.46 69.3026 162.117 67.8549C159.671 66.3429 155.339 69.9301 153.045 73.4947C150.75 77.0592 151.729 80.4763 151.087 83.4134C150.95 83.9955 150.811 86.1992 150.682 89.2573C150.138 86.2437 148.471 83.5488 146.018 81.7162C142.854 79.1911 140.121 76.1142 137.513 76.5111C134.904 76.908 136.322 80.9791 138.371 83.8367C140.208 86.3807 149.276 88.9208 150.61 90.9658C150.451 95.1238 150.312 100.359 150.213 105.25C149.499 102.725 149.99 102.514 147.061 98.6354C145.322 96.3372 138.178 93.4946 137.331 95.0822C136.484 96.6698 137.773 99.6485 140.468 101.739C142.642 103.425 147.446 103.421 148.584 104.468C148.845 104.71 149.718 105.647 150.194 106.188C150.077 112.153 150.028 117.418 150.085 119.218L150.554 119.236C150.531 118.772 150.584 115.736 150.678 111.718C151.85 109.582 159.75 108.316 162.173 106.108C164.721 103.784 166.55 101.07 165.458 99.2516C164.547 97.7396 157.376 99.7959 154.439 102.306C152.496 103.977 151.31 105.765 150.765 108.161C150.829 105.424 150.909 102.491 150.981 99.7127C151.578 99.0361 152.912 97.4372 153.88 96.1709Z" fill="#E6E6E6"/>
<path d="M154.568 123.882H146.381C145.931 123.882 145.545 123.3 145.458 122.491L144.876 117.199H156.069L155.49 122.491C155.396 123.3 155.014 123.882 154.568 123.882Z" fill="#F0F0F0"/>
<path d="M156.302 119.244H144.641C144.361 119.244 144.127 118.866 144.097 118.345L143.858 114.429C143.821 113.828 144.074 113.295 144.403 113.295H156.544C156.869 113.295 157.123 113.82 157.085 114.429L156.847 118.345C156.82 118.859 156.582 119.244 156.302 119.244Z" fill="#F0F0F0"/>
<path d="M94.4999 140.828C134.977 140.828 167.79 138.912 167.79 136.549C167.79 134.186 134.977 132.27 94.4999 132.27C54.0227 132.27 21.2095 134.186 21.2095 136.549C21.2095 138.912 54.0227 140.828 94.4999 140.828Z" fill="#F5F5F5"/>
<path d="M121.882 75.0823L82.9819 77.3503C81.6078 77.4312 80.2595 77.759 79.0016 78.318L36.7487 97.218C36.0074 97.5439 35.4002 98.1143 35.0288 98.8339C34.6573 99.5535 34.5439 100.379 34.7075 101.172L41.6892 134.19C41.8072 134.722 42.0453 135.22 42.3851 135.645C42.725 136.071 43.1577 136.413 43.6501 136.646C44.1425 136.878 44.6816 136.995 45.2262 136.988C45.7708 136.98 46.3064 136.848 46.7922 136.602L88.4969 115.782L127.008 114.493C127.481 114.48 127.947 114.366 128.374 114.16C128.8 113.953 129.178 113.658 129.482 113.294C129.785 112.93 130.008 112.505 130.135 112.048C130.261 111.592 130.289 111.113 130.217 110.645L125.065 79.0286C124.796 77.3957 123.556 75.0332 121.882 75.0823Z" fill="#C7C7C7"/>
<path opacity="0.1" d="M121.882 75.0823L82.9819 77.3503C81.6078 77.4312 80.2595 77.759 79.0016 78.318L36.7487 97.218C36.0074 97.5439 35.4002 98.1143 35.0288 98.8339C34.6573 99.5535 34.5439 100.379 34.7075 101.172L41.6892 134.19C41.8072 134.722 42.0453 135.22 42.3851 135.645C42.725 136.071 43.1577 136.413 43.6501 136.646C44.1425 136.878 44.6816 136.995 45.2262 136.988C45.7708 136.98 46.3064 136.848 46.7922 136.602L88.4969 115.782L127.008 114.493C127.481 114.48 127.947 114.366 128.374 114.16C128.8 113.953 129.178 113.658 129.482 113.294C129.785 112.93 130.008 112.505 130.135 112.048C130.261 111.592 130.289 111.113 130.217 110.645L125.065 79.0286C124.796 77.3957 123.556 75.0332 121.882 75.0823Z" fill="#111111"/>
<path d="M122.135 76.4242L83.7682 78.5864C82.4081 78.6609 81.0738 78.9878 79.8332 79.5503L38.2003 98.3445C37.467 98.6759 36.8687 99.2476 36.5044 99.9652C36.1401 100.683 36.0317 101.503 36.1969 102.291L43.1785 135.324C43.291 135.853 43.5231 136.348 43.857 136.773C44.1909 137.198 44.6178 137.54 45.1047 137.774C45.5917 138.008 46.1258 138.127 46.666 138.123C47.2063 138.118 47.7382 137.99 48.2211 137.747L89.3097 117.044L127.291 115.842C127.761 115.827 128.223 115.712 128.645 115.505C129.067 115.297 129.44 115.002 129.74 114.639C130.039 114.276 130.257 113.853 130.38 113.399C130.502 112.945 130.527 112.47 130.451 112.005L125.284 80.3932C125.016 78.7451 123.791 76.3789 122.135 76.4242Z" fill="#C7C7C7"/>
<path opacity="0.2" d="M85.3308 84.3698L118.251 82.3438" stroke="#111111" stroke-width="2" stroke-linecap="round" stroke-linejoin="round"/>
<path opacity="0.2" d="M81.3872 85.2205L87.4012 112.845" stroke="#111111" stroke-width="2" stroke-linecap="round" stroke-linejoin="round"/>
<path opacity="0.2" d="M41.2891 110.161L45.5302 131.408C45.5302 131.408 48.781 122.979 41.2891 110.161Z" fill="#FAFAFA"/>
<path opacity="0.2" d="M41.8455 110.41C41.9929 110.788 79.5169 94.6855 79.5169 94.6855C79.6186 98.3363 78.7058 101.944 76.88 105.107C75.0542 108.27 72.387 110.865 69.1749 112.603C57.8802 118.934 41.8455 110.41 41.8455 110.41Z" fill="#FAFAFA"/>
<path d="M66.7697 111.038C67.6674 111.038 68.3951 110.31 68.3951 109.412C68.3951 108.515 67.6674 107.787 66.7697 107.787C65.872 107.787 65.1443 108.515 65.1443 109.412C65.1443 110.31 65.872 111.038 66.7697 111.038Z" fill="#C7C7C7"/>
<path opacity="0.2" d="M79.5356 94.6855C79.5356 94.6855 84.1888 101.69 83.0624 113.62L79.5356 94.6855Z" fill="#111111"/>
<g opacity="0.2">
<path d="M39.4944 101.815L40.36 101.433" stroke="#FAFAFA" stroke-linecap="round" stroke-linejoin="round"/>
<path d="M42.155 100.639L77.1956 85.1487" stroke="#FAFAFA" stroke-linecap="round" stroke-linejoin="round" stroke-dasharray="5.2 5.2"/>
<path d="M78.0952 84.7519L78.9571 84.3701" stroke="#FAFAFA" stroke-linecap="round" stroke-linejoin="round"/>
</g>
<path opacity="0.2" d="M86.4336 90.5799L119.354 88.55" stroke="#111111" stroke-width="2" stroke-linecap="round" stroke-linejoin="round"/>
<path opacity="0.2" d="M87.9153 98.3255L120.835 96.2957" stroke="#111111" stroke-width="2" stroke-linecap="round" stroke-linejoin="round"/>
</svg>
